<?xml version="1.0" encoding="UTF-8"?>
<svg xmlns="http://www.w3.org/2000/svg" xmlns:xlink="http://www.w3.org/1999/xlink" version="1.1" viewBox="0 0 900 900">
  <!-- Generator: Adobe Illustrator 30.3.0, SVG Export Plug-In . SVG Version: 2.1.3 Build 182)  -->
  <defs>
    <style>
      .st0 {
        fill: none;
      }

      .st1 {
        fill: #e14d28;
      }

      .st2 {
        fill: #a2af10;
      }

      .st3 {
        clip-path: url(#clippath-1);
      }

      .st4 {
        clip-path: url(#clippath);
      }
    </style>
    <clipPath id="clippath">
      <polygon class="st0" points="1.38 -.97 364.61 .23 365.81 226.35 335.46 245.94 293.1 323.08 315.89 483.59 314.69 496.99 316.13 511.39 328.7 545.67 334.03 741.28 257.59 829.3 258.87 899.31 .72 898.27 1.38 -.97"/>
    </clipPath>
    <clipPath id="clippath-1">
      <polygon class="st0" points="447.76 1.78 371.66 226.45 332.32 247.25 319.95 392.82 315.36 496.8 316.8 511.2 339.66 630.24 318.69 790.06 167.95 900.06 898.24 901.08 899.26 .69 792.31 .69 447.76 1.78"/>
    </clipPath>
  </defs>
  <g id="Layer_1">
    <g class="st4">
      <path class="st1" d="M766.13,579.07c2.4,2.88,3.6,5.4,3.6,7.56s-2.64,3.24-7.92,3.24h-313.92c.47,10.08-5.65,18.36-18.36,24.84-12.72,6.48-20.88,9.72-24.48,9.72s-5.4-4.32-5.4-12.96l4.32-62.64c1.44-27.36,2.16-51.59,2.16-72.72v-50.4c-34.09,36-64.08,64.56-90,85.68,1.44,18.72,2.16,41.76,2.16,69.12s-1.8,62.4-5.4,105.12c-3.6,42.72-9.48,71.28-17.64,85.68-8.17,14.4-20.64,26.64-37.44,36.72-16.81,10.08-27.12,15.12-30.96,15.12s-6.96-4.08-9.36-12.24c-5.29-18.25-12.96-30.72-23.04-37.44-10.08-6.73-24.48-12.24-43.2-16.56v-10.08c27.36,3.84,49.07,5.76,65.16,5.76s27.24-3.6,33.48-10.8c6.23-7.2,11.63-24.48,16.2-51.84,4.56-27.36,6.84-60.59,6.84-99.72s-1.2-72.83-3.6-101.16c-42.73,68.16-90.97,125.04-144.72,170.64l-6.48-6.48c58.56-68.64,106.08-145.68,142.56-231.12-3.85-24.95-9.36-47.76-16.56-68.4-45.61,50.4-85.93,87.12-120.96,110.16l-7.92-5.76c31.2-28.32,68.64-74.63,112.32-138.96-25.92-36.96-55.92-67.68-90-92.16l7.2-10.8c36.96,17.76,69.84,43.92,98.64,78.48,27.36-43.67,45.36-76.56,54-98.64l46.8,29.52c5.28,3.36,7.92,6.37,7.92,9s-3.96,4.44-11.88,5.4c-7.92.97-17.89,10.92-29.88,29.88-12,18.97-26.17,38.05-42.48,57.24,23.51,40.32,39.12,96.96,46.8,169.92,60-69.59,101.52-131.04,124.56-184.32l41.76,23.76c5.76,3.36,8.64,6.37,8.64,9s-3.24,4.57-9.72,5.76c-6.48,1.2-14.76,6.37-24.84,15.48h98.64c-12.49-30.71-27.12-51.12-43.92-61.2l2.16-6.48c13.43.97,26.88,3.85,40.32,8.64,13.43,4.8,22.68,9.36,27.72,13.68,5.04,4.32,7.56,10.08,7.56,17.28,0,11.52-3.36,20.88-10.08,28.08h105.12l34.56-39.6,39.6,47.52c3.35,2.88,5.04,5.4,5.04,7.56s-3.13,3.24-9.36,3.24h-161.28v45.36h67.68l28.08-33.12,33.12,41.04c2.88,2.88,4.32,5.4,4.32,7.56s-2.88,3.24-8.64,3.24h-124.56v49.68h66.24l31.68-37.44,37.44,45.36c2.4,2.88,3.6,5.4,3.6,7.56s-2.88,3.24-8.64,3.24h-130.32v53.28h104.4l32.4-38.16,38.16,46.08ZM782.69,769.15c-16.81,4.79-27.97,10.08-33.48,15.84-5.52,5.76-8.76,14.64-9.72,26.64,0,5.28-2.64,7.92-7.92,7.92-7.68,0-32.04-4.68-73.08-14.04-41.04-9.36-77.4-23.65-109.08-42.84-84.96,38.88-171.36,61.67-259.2,68.4l-2.88-10.08c76.79-13.93,152.88-41.29,228.24-82.08-26.4-21.12-49.44-50.64-69.12-88.56-22.57,0-40.08,2.64-52.56,7.92l-24.48-30.24c17.28,2.41,36.47,3.6,57.6,3.6h213.84l29.52-30.24,39.6,44.64c4.32,4.8,6.48,8.04,6.48,9.72s-2.16,3-6.48,3.96c-10.08,1.92-17.89,4.08-23.4,6.48-5.52,2.41-12.36,8.17-20.52,17.28-18.25,19.2-43.68,38.16-76.32,56.88,45.6,14.4,109.91,21.12,192.96,20.16v8.64ZM766.85,260.11c3.35,3.85,5.04,6.6,5.04,8.28s-3.13,2.52-9.36,2.52h-126l1.44,25.92c0,6.24-6.01,12.24-18,18-12,5.76-19.92,8.64-23.76,8.64s-5.76-4.79-5.76-14.4l1.44-38.16h-92.16l1.44,25.92c0,5.76-5.52,11.16-16.56,16.2-11.05,5.04-17.76,7.56-20.16,7.56-6.24,0-9.36-5.28-9.36-15.84l1.44-33.84h-43.92c-18.25,0-34.32,2.64-48.24,7.92l-24.48-30.24c17.28,2.41,36.47,3.6,57.6,3.6h59.76v-16.56c0-14.87-.72-34.56-2.16-59.04l56.88,19.44c4.79,1.44,7.2,3,7.2,4.68s-2.16,3.96-6.48,6.84l-14.4,8.64v36h94.32v-12.96c0-18.72-.72-40.79-2.16-66.24l58.32,19.44c4.79,1.44,7.2,3.13,7.2,5.04s-2.16,4.08-6.48,6.48l-13.68,8.64v39.6h56.88l34.56-39.6,39.6,47.52ZM547.97,430.75v-45.36h-100.08v45.36h100.08ZM547.97,499.15v-49.68h-100.08v49.68h100.08ZM547.97,571.15v-53.28h-100.08v53.28h100.08ZM637.25,650.35h-172.08c25.92,32.65,52.8,56.41,80.64,71.28,37.44-22.56,67.92-46.32,91.44-71.28Z"/>
    </g>
  </g>
  <g id="Layer_2">
    <g class="st3">
      <path class="st2" d="M766.8,578.88c2.4,2.88,3.6,5.4,3.6,7.56s-2.64,3.24-7.92,3.24h-313.92c.47,10.08-5.65,18.36-18.36,24.84-12.72,6.48-20.88,9.72-24.48,9.72s-5.4-4.32-5.4-12.96l4.32-62.64c1.44-27.36,2.16-51.59,2.16-72.72v-50.4c-34.09,36-64.08,64.56-90,85.68,1.44,18.72,2.16,41.76,2.16,69.12s-1.8,62.4-5.4,105.12c-3.6,42.72-9.48,71.28-17.64,85.68-8.17,14.4-20.64,26.64-37.44,36.72-16.81,10.08-27.12,15.12-30.96,15.12s-6.96-4.08-9.36-12.24c-5.29-18.25-12.96-30.72-23.04-37.44-10.08-6.73-24.48-12.24-43.2-16.56v-10.08c27.36,3.84,49.07,5.76,65.16,5.76s27.24-3.6,33.48-10.8c6.23-7.2,11.63-24.48,16.2-51.84,4.56-27.36,6.84-60.59,6.84-99.72s-1.2-72.83-3.6-101.16c-42.73,68.16-90.97,125.04-144.72,170.64l-6.48-6.48c58.56-68.64,106.08-145.68,142.56-231.12-3.85-24.95-9.36-47.76-16.56-68.4-45.61,50.4-85.93,87.12-120.96,110.16l-7.92-5.76c31.2-28.32,68.64-74.63,112.32-138.96-25.92-36.96-55.92-67.68-90-92.16l7.2-10.8c36.96,17.76,69.84,43.92,98.64,78.48,27.36-43.67,45.36-76.56,54-98.64l46.8,29.52c5.28,3.36,7.92,6.37,7.92,9s-3.96,4.44-11.88,5.4c-7.92.97-17.89,10.92-29.88,29.88-12,18.97-26.17,38.05-42.48,57.24,23.51,40.32,39.12,96.96,46.8,169.92,60-69.59,101.52-131.04,124.56-184.32l41.76,23.76c5.76,3.36,8.64,6.37,8.64,9s-3.24,4.57-9.72,5.76c-6.48,1.2-14.76,6.37-24.84,15.48h98.64c-12.49-30.71-27.12-51.12-43.92-61.2l2.16-6.48c13.43.97,26.88,3.85,40.32,8.64,13.43,4.8,22.68,9.36,27.72,13.68,5.04,4.32,7.56,10.08,7.56,17.28,0,11.52-3.36,20.88-10.08,28.08h105.12l34.56-39.6,39.6,47.52c3.35,2.88,5.04,5.4,5.04,7.56s-3.13,3.24-9.36,3.24h-161.28v45.36h67.68l28.08-33.12,33.12,41.04c2.88,2.88,4.32,5.4,4.32,7.56s-2.88,3.24-8.64,3.24h-124.56v49.68h66.24l31.68-37.44,37.44,45.36c2.4,2.88,3.6,5.4,3.6,7.56s-2.88,3.24-8.64,3.24h-130.32v53.28h104.4l32.4-38.16,38.16,46.08ZM783.36,768.96c-16.81,4.79-27.97,10.08-33.48,15.84-5.52,5.76-8.76,14.64-9.72,26.64,0,5.28-2.64,7.92-7.92,7.92-7.68,0-32.04-4.68-73.08-14.04-41.04-9.36-77.4-23.65-109.08-42.84-84.96,38.88-171.36,61.67-259.2,68.4l-2.88-10.08c76.79-13.93,152.88-41.29,228.24-82.08-26.4-21.12-49.44-50.64-69.12-88.56-22.57,0-40.08,2.64-52.56,7.92l-24.48-30.24c17.28,2.41,36.47,3.6,57.6,3.6h213.84l29.52-30.24,39.6,44.64c4.32,4.8,6.48,8.04,6.48,9.72s-2.16,3-6.48,3.96c-10.08,1.92-17.89,4.08-23.4,6.48-5.52,2.41-12.36,8.17-20.52,17.28-18.25,19.2-43.68,38.16-76.32,56.88,45.6,14.4,109.91,21.12,192.96,20.16v8.64ZM767.52,259.92c3.35,3.85,5.04,6.6,5.04,8.28s-3.13,2.52-9.36,2.52h-126l1.44,25.92c0,6.24-6.01,12.24-18,18-12,5.76-19.92,8.64-23.76,8.64s-5.76-4.79-5.76-14.4l1.44-38.16h-92.16l1.44,25.92c0,5.76-5.52,11.16-16.56,16.2-11.05,5.04-17.76,7.56-20.16,7.56-6.24,0-9.36-5.28-9.36-15.84l1.44-33.84h-43.92c-18.25,0-34.32,2.64-48.24,7.92l-24.48-30.24c17.28,2.41,36.47,3.6,57.6,3.6h59.76v-16.56c0-14.87-.72-34.56-2.16-59.04l56.88,19.44c4.79,1.44,7.2,3,7.2,4.68s-2.16,3.96-6.48,6.84l-14.4,8.64v36h94.32v-12.96c0-18.72-.72-40.79-2.16-66.24l58.32,19.44c4.79,1.44,7.2,3.13,7.2,5.04s-2.16,4.08-6.48,6.48l-13.68,8.64v39.6h56.88l34.56-39.6,39.6,47.52ZM548.64,430.56v-45.36h-100.08v45.36h100.08ZM548.64,498.96v-49.68h-100.08v49.68h100.08ZM548.64,570.96v-53.28h-100.08v53.28h100.08ZM637.92,650.16h-172.08c25.92,32.65,52.8,56.41,80.64,71.28,37.44-22.56,67.92-46.32,91.44-71.28Z"/>
    </g>
    <path class="st2" d="M552.96,805.34"/>
  </g>
</svg>