<?xml version="1.0" encoding="UTF-8"?>
<svg xmlns="http://www.w3.org/2000/svg" xmlns:xlink="http://www.w3.org/1999/xlink" version="1.1" viewBox="0 0 900 900">
  <!-- Generator: Adobe Illustrator 30.3.0, SVG Export Plug-In . SVG Version: 2.1.3 Build 182)  -->
  <defs>
    <style>
      .st0 {
        fill: none;
      }

      .st1 {
        fill: #ae55c1;
      }

      .st2 {
        clip-path: url(#clippath-1);
      }

      .st3 {
        fill: #2279dc;
      }

      .st4 {
        clip-path: url(#clippath);
      }
    </style>
    <clipPath id="clippath">
      <polygon class="st0" points="395 3.89 361 212.89 367 346.89 333 437.89 311 504.89 297 560.89 291 600.89 317 744.89 286 897.89 0 899.89 -1 .89 395 3.89"/>
    </clipPath>
    <clipPath id="clippath-1">
      <polyline class="st0" points="410 -2.11 364 235.89 369 420.89 306 484.89 295 549.89 290 626.89 323 769.89 272 898.89 899 899.89 899 .89"/>
    </clipPath>
  </defs>
  <g id="Layer_1">
    <g class="st4">
      <path class="st3" d="M236.16,497.52c-38.88,48.49-78.01,89.76-117.36,123.84l-7.92-6.48c70.08-86.4,131.04-185.76,182.88-298.08l51.12,37.44c3.84,2.41,5.76,5.16,5.76,8.28s-2.64,5.4-7.92,6.84c-5.29,1.44-11.77,5.76-19.44,12.96-7.68,7.2-15.73,17.04-24.12,29.52-8.4,12.49-19.56,28.08-33.48,46.8l26.64,12.24c4.79,1.92,7.2,4.08,7.2,6.48s-1.69,4.8-5.04,7.2l-10.08,8.64v188.64c0,39.84.36,69,1.08,87.48.72,18.47,1.08,28.91,1.08,31.32,0,9.11-7.45,17.64-22.32,25.56-14.88,7.92-24.24,11.88-28.08,11.88s-5.76-4.8-5.76-14.4l3.6-70.56c1.44-30.72,2.16-60,2.16-87.84v-167.76ZM339.84,199.44c5.76,4.8,8.64,8.89,8.64,12.24s-3.85,5.76-11.52,7.2c-7.68,1.44-22.32,12.24-43.92,32.4-76.8,70.56-135.12,118.08-174.96,142.56l-6.48-7.2c74.4-72,134.39-147.35,180-226.08l48.24,38.88ZM596.16,511.2h-191.52c-20.64,0-37.2,2.64-49.68,7.92l-25.2-31.68c18.24,2.41,38.16,3.6,59.76,3.6h275.04l38.88-46.08,43.2,51.84c3.35,3.85,5.04,7.2,5.04,10.08s-3.36,4.32-10.08,4.32h-96.48v77.04h51.84l41.04-48.96,44.64,54.72c3.84,3.85,5.76,7.2,5.76,10.08s-3.36,4.32-10.08,4.32h-133.2v149.04c0,23.51-2.52,39.48-7.56,47.88-5.04,8.39-14.29,16.44-27.72,24.12-13.44,7.67-22.08,11.52-25.92,11.52s-6.96-5.4-9.36-16.2c-2.41-10.8-11.52-20.28-27.36-28.44-15.84-8.17-36.97-15.37-63.36-21.6l2.16-12.24c27.36,2.88,48.84,4.32,64.44,4.32s27.11-1.2,34.56-3.6c7.44-2.41,11.16-8.17,11.16-17.28v-137.52h-224.64c-20.16,0-36.48,2.64-48.96,7.92l-25.92-31.68c18.24,2.41,38.4,3.6,60.48,3.6h239.04v-77.04ZM456.48,216h163.44l30.24-34.56,51.84,40.32c4.32,3.36,6.48,6.01,6.48,7.92s-2.16,4.57-6.48,7.92l-23.76,17.28v88.56c0,15.84.47,30.49,1.44,43.92l2.16,34.56c0,7.68-6.84,15.6-20.52,23.76-13.68,8.17-22.57,12.24-26.64,12.24s-6.12-3.6-6.12-10.8v-31.68h-173.52v18c0,10.56-6.48,19.08-19.44,25.56s-21.36,9.72-25.2,9.72-5.76-4.79-5.76-14.4l1.44-38.16c.47-14.87.72-37.91.72-69.12v-91.44c0-19.19-.72-41.51-2.16-66.96l51.84,27.36ZM426.24,620.64c43.2,24.01,64.8,49.21,64.8,75.6,0,12.49-3.96,23.52-11.88,33.12-7.92,9.6-17.17,14.4-27.72,14.4-4.8,0-8.89-2.28-12.24-6.84-3.36-4.57-5.04-10.69-5.04-18.36l.72-25.92c0-24-5.04-45.6-15.12-64.8l6.48-7.2ZM628.56,306v-69.84h-173.52v69.84h173.52ZM628.56,395.28v-69.12h-173.52v69.12h173.52Z"/>
    </g>
  </g>
  <g id="Layer_2">
    <g class="st2">
      <path class="st1" d="M234.52,497.65c-38.88,48.49-78.01,89.76-117.36,123.84l-7.92-6.48c70.08-86.4,131.04-185.76,182.88-298.08l51.12,37.44c3.84,2.41,5.76,5.16,5.76,8.28s-2.64,5.4-7.92,6.84c-5.29,1.44-11.77,5.76-19.44,12.96-7.68,7.2-15.73,17.04-24.12,29.52-8.4,12.49-19.56,28.08-33.48,46.8l26.64,12.24c4.79,1.92,7.2,4.08,7.2,6.48s-1.69,4.8-5.04,7.2l-10.08,8.64v188.64c0,39.84.36,69,1.08,87.48.72,18.47,1.08,28.91,1.08,31.32,0,9.11-7.45,17.64-22.32,25.56-14.88,7.92-24.24,11.88-28.08,11.88s-5.76-4.8-5.76-14.4l3.6-70.56c1.44-30.72,2.16-60,2.16-87.84v-167.76ZM338.2,199.57c5.76,4.8,8.64,8.89,8.64,12.24s-3.85,5.76-11.52,7.2c-7.68,1.44-22.32,12.24-43.92,32.4-76.8,70.56-135.12,118.08-174.96,142.56l-6.48-7.2c74.4-72,134.39-147.35,180-226.08l48.24,38.88ZM594.52,511.33h-191.52c-20.64,0-37.2,2.64-49.68,7.92l-25.2-31.68c18.24,2.41,38.16,3.6,59.76,3.6h275.04l38.88-46.08,43.2,51.84c3.35,3.85,5.04,7.2,5.04,10.08s-3.36,4.32-10.08,4.32h-96.48v77.04h51.84l41.04-48.96,44.64,54.72c3.84,3.85,5.76,7.2,5.76,10.08s-3.36,4.32-10.08,4.32h-133.2v149.04c0,23.51-2.52,39.48-7.56,47.88-5.04,8.39-14.29,16.44-27.72,24.12-13.44,7.67-22.08,11.52-25.92,11.52s-6.96-5.4-9.36-16.2c-2.41-10.8-11.52-20.28-27.36-28.44-15.84-8.17-36.97-15.37-63.36-21.6l2.16-12.24c27.36,2.88,48.84,4.32,64.44,4.32s27.11-1.2,34.56-3.6c7.44-2.41,11.16-8.17,11.16-17.28v-137.52h-224.64c-20.16,0-36.48,2.64-48.96,7.92l-25.92-31.68c18.24,2.41,38.4,3.6,60.48,3.6h239.04v-77.04ZM454.84,216.13h163.44l30.24-34.56,51.84,40.32c4.32,3.36,6.48,6.01,6.48,7.92s-2.16,4.57-6.48,7.92l-23.76,17.28v88.56c0,15.84.47,30.49,1.44,43.92l2.16,34.56c0,7.68-6.84,15.6-20.52,23.76-13.68,8.17-22.57,12.24-26.64,12.24s-6.12-3.6-6.12-10.8v-31.68h-173.52v18c0,10.56-6.48,19.08-19.44,25.56s-21.36,9.72-25.2,9.72-5.76-4.79-5.76-14.4l1.44-38.16c.47-14.87.72-37.91.72-69.12v-91.44c0-19.19-.72-41.51-2.16-66.96l51.84,27.36ZM424.6,620.77c43.2,24.01,64.8,49.21,64.8,75.6,0,12.49-3.96,23.52-11.88,33.12-7.92,9.6-17.17,14.4-27.72,14.4-4.8,0-8.89-2.28-12.24-6.84-3.36-4.57-5.04-10.69-5.04-18.36l.72-25.92c0-24-5.04-45.6-15.12-64.8l6.48-7.2ZM626.92,306.13v-69.84h-173.52v69.84h173.52ZM626.92,395.41v-69.12h-173.52v69.12h173.52Z"/>
    </g>
  </g>
</svg>