<?xml version="1.0" encoding="UTF-8"?>
<svg id="Layer_1" xmlns="http://www.w3.org/2000/svg" xmlns:xlink="http://www.w3.org/1999/xlink" version="1.1" viewBox="0 0 900 900">
  <!-- Generator: Adobe Illustrator 30.3.0, SVG Export Plug-In . SVG Version: 2.1.3 Build 182)  -->
  <defs>
    <style>
      .st0 {
        fill: none;
      }

      .st1 {
        fill: #68625c;
        font-family: STSongti-SC-Regular, 'Songti SC';
        font-size: 760px;
      }

      .st1, .st2 {
        isolation: isolate;
      }

      .st3 {
        fill: #6f5076;
      }

      .st4 {
        clip-path: url(#clippath);
      }
    </style>
    <clipPath id="clippath">
      <polyline class="st0" points="441.57 -3.22 381.06 223.96 367.65 245.7 363.37 253.14 333.79 323.64 350.72 423.15 351.09 484.91 355.59 570.18 341.88 649.14 216.1 782 227.93 897.85 898.87 898.79 898.4 .42"/>
    </clipPath>
  </defs>
  <g class="st2">
    <path class="st3" d="M358.04,241.4c3.54,4.06,5.32,7.35,5.32,9.88s-3.8,3.8-11.4,3.8h-95v177.08h18.24l29.64-36.48,38,41.04c4.05,4.06,6.08,7.48,6.08,10.26s-3.3,4.18-9.88,4.18h-82.08v175.56l85.88-22.04,1.52,9.88-105.64,47.12c-46.62,20.27-74.23,33.95-82.84,41.04-8.62,7.09-13.81,10.64-15.58,10.64s-3.68-1.52-5.7-4.56l-26.6-43.32,101.08-25.84v-188.48h-28.88c-11.66,0-24.58,2.79-38.76,8.36l-25.84-31.16c20.26,2.54,40.53,3.8,60.8,3.8h32.68v-177.08h-30.4c-16.22,0-33.19,1.78-50.92,5.32l-23.56-28.12c19.76,2.54,39.52,3.8,59.28,3.8h123.88l30.4-36.48,40.28,41.8ZM802.64,617.6c-6.59,42.06-9.88,77.65-9.88,106.78s2.91,50.92,8.74,65.36c5.82,14.44,8.74,24.32,8.74,29.64s-3.04,7.98-9.12,7.98c-13.68,0-37.12-11.66-70.3-34.96-33.19-23.31-62.2-61.56-87.02-114.76-59.79,63.84-129.2,110.96-208.24,141.36l-3.8-10.64c85.62-47.12,151.24-104.12,196.84-171-21.79-81.57-33.7-194.81-35.72-339.72h-180.88v186.96c0,84.11-12.04,151.88-36.1,203.3-24.07,51.42-63.46,99.18-118.18,143.26l-6.84-6.84c42.05-47.12,72.07-95.51,90.06-145.16,17.98-49.65,26.98-115.01,26.98-196.08v-152c0-35.97-1.02-62.32-3.04-79.04l38.76,26.6h189.24c-2.54-62.82-5.58-115.01-9.12-156.56l63.08,24.32c5.57,2.03,8.36,4.56,8.36,7.6s-2.28,6.59-6.84,10.64l-11.4,9.12c-1.52,40.03-2.28,74.99-2.28,104.88h86.64l39.52-44.84,41.04,47.88c3.04,4.06,4.56,7.73,4.56,11.02s-4.06,4.94-12.16,4.94h-159.6c1.01,118.56,8.61,215.34,22.8,290.32,18.24-39.52,36.48-115.26,54.72-227.24l53.2,25.08c4.05,2.03,6.08,3.93,6.08,5.7s-2.28,4.18-6.84,7.22l-11.4,6.84c-24.83,114-52.19,191.78-82.08,233.32,17.22,43.58,32.8,72.07,46.74,85.5,13.93,13.42,24.44,20.14,31.54,20.14,5.06,0,9.12-5.83,12.16-17.48l28.88-111.72,12.16,2.28ZM577.68,385.04c3.54,4.06,5.32,7.35,5.32,9.88s-3.55,3.8-10.64,3.8h-76.76c-19.76,0-36.99,2.54-51.68,7.6l-27.36-31.92c18.74,3.04,39.77,4.56,63.08,4.56h38l28.12-31.92,31.92,38ZM580.72,480.8c2.02,2.03,3.04,3.68,3.04,4.94s-1.78,3.17-5.32,5.7l-6.84,4.56v80.56c0,17.74.5,33.95,1.52,48.64l2.28,34.96c0,8.62-4.56,15.71-13.68,21.28-9.12,5.58-16.47,8.36-22.04,8.36s-8.36-9.62-8.36-28.88h-53.2v22.04c0,17.74-4.94,29.13-14.82,34.2-9.88,5.06-16.98,7.6-21.28,7.6s-6.46-5.58-6.46-16.72l1.52-38c1.01-15.2,1.52-32.68,1.52-52.44v-100.32c0-19.76-1.02-42.3-3.04-67.64l40.28,27.36h50.92l24.32-27.36,29.64,31.16ZM531.32,641.16v-144.4h-53.2v144.4h53.2ZM664.32,163.12c31.92,4.56,53.7,10.14,65.36,16.72,11.65,6.59,17.48,15.46,17.48,26.6s-2.54,20.52-7.6,28.12c-5.07,7.6-11.02,11.4-17.86,11.4s-13.05-5.06-18.62-15.2c-11.15-22.8-25.84-42.81-44.08-60.04l5.32-7.6Z"/>
  </g>
  <g class="st4">
    <text class="st1" transform="translate(70 705)"><tspan x="0" y="0">瑊</tspan></text>
  </g>
</svg>